<svg xmlns="http://www.w3.org/2000/svg" xmlns:v="https://svgstorm.com"
viewBox = "0 0 1672 941"
width="1672"
height="941">
<g fill="None" fill-opacity="0.0" stroke="#030F1F" stroke-opacity="1.00" stroke-width="0.3"><path d="
M 0.00 941.00 
L 1672.00 941.00
L 1672.00 0.00
L 0.00 0.00
L 0.00 941.00
M 1015.00 310.00 
C 1020.69 309.85 1026.47 311.12 1032.00 312.00
C 1039.90 313.26 1046.70 315.20 1054.00 318.00
C 1058.30 319.65 1062.57 321.63 1067.00 323.00
C 1066.90 326.67 1061.42 324.32 1059.00 325.00
C 1051.16 325.30 1042.55 326.10 1035.00 328.00
C 1010.18 334.24 988.12 352.47 970.25 371.25 C 952.38 390.03 935.92 410.38 923.70 432.70 C 911.47 455.01 890.81 476.62 883.00 501.00
C 877.81 517.21 865.39 535.71 855.00 549.00
C 847.77 561.70 839.37 574.19 832.00 587.00
C 829.04 592.14 825.77 596.63 822.00 601.00
C 820.08 603.22 818.62 605.64 817.00 608.00
C 814.59 611.52 811.76 614.77 809.00 618.00
C 805.64 621.93 801.95 625.76 798.00 629.00
C 796.74 630.04 795.26 631.04 794.00 632.00
C 780.66 642.21 766.47 650.71 750.00 654.00
C 746.99 654.60 744.23 654.99 741.00 655.00
C 736.42 655.65 731.56 655.93 727.00 655.00
C 720.80 654.45 714.23 651.70 709.00 649.00
C 685.29 636.75 677.16 611.98 667.00 590.00
C 656.20 566.64 640.35 533.01 616.00 519.00
C 610.33 515.74 603.55 512.52 597.00 512.00
C 593.03 511.68 588.98 512.24 585.00 512.00
C 586.18 508.05 590.39 504.77 594.00 503.00
C 601.20 498.72 608.13 494.69 616.00 492.00
C 625.07 488.90 634.33 485.91 644.00 485.00
C 649.68 483.80 656.40 484.00 662.00 485.00
C 724.40 489.25 729.13 562.55 766.00 598.00
C 769.80 601.66 773.97 606.85 778.00 610.00
C 789.55 615.91 801.55 617.13 812.00 608.00
C 812.25 607.78 812.00 607.00 812.00 607.00
C 811.09 607.37 809.86 607.29 809.00 608.00
C 808.95 605.22 805.99 602.62 808.00 600.00
C 800.09 593.77 798.30 580.39 786.00 577.00
C 790.22 571.67 779.81 572.33 782.00 567.00
C 777.30 564.91 772.43 562.94 768.00 560.00
C 762.49 566.09 758.82 574.89 752.00 579.00
C 754.13 569.73 761.30 561.44 767.00 554.00
C 774.06 542.59 780.47 530.86 788.00 520.00
C 792.98 512.81 795.95 504.23 802.00 498.00
C 808.82 487.10 815.23 474.94 822.00 464.00
C 846.29 424.76 869.07 377.94 907.00 348.00
C 908.90 346.50 911.26 345.46 913.00 344.00
C 918.75 337.27 925.76 334.17 933.00 330.00
C 953.10 318.44 974.42 311.87 998.00 310.00
C 1003.46 308.95 1009.63 309.23 1015.00 310.00
M 781.00 389.00 
C 754.55 385.31 728.30 380.00 703.00 372.00
C 695.31 369.57 690.72 367.71 691.00 377.00 C 691.28 386.29 689.53 390.21 689.00 399.00
C 688.50 407.44 687.10 416.28 686.00 424.00
C 686.00 426.77 685.20 429.96 685.00 432.00
C 685.39 438.29 684.55 445.55 683.22 451.22 C 681.89 456.90 684.99 467.33 680.00 468.00
C 672.19 469.06 664.20 464.04 656.00 466.00
C 660.64 420.59 666.85 375.56 671.00 330.00
C 726.83 356.03 785.42 377.28 848.00 382.00
C 845.84 386.33 841.73 389.65 840.00 394.00
C 820.12 393.23 800.11 392.80 781.00 389.00
M 1014.00 577.00 
C 1011.91 590.12 1011.18 603.63 1010.00 617.00
C 997.21 615.52 984.25 612.15 972.00 610.00
C 953.62 611.25 934.07 607.00 915.00 607.00
C 897.54 608.69 878.87 608.61 861.00 610.00
C 868.01 617.92 849.69 613.15 845.00 617.00
C 850.84 599.62 873.63 607.51 888.00 604.00
C 919.23 604.00 949.75 602.68 980.00 608.00
C 989.06 609.59 998.08 610.84 1007.00 613.00
C 1009.22 590.73 1010.36 567.53 1014.00 546.00
C 1017.05 514.46 1018.84 483.19 1023.00 452.00
C 1024.22 442.87 1024.32 431.84 1026.00 423.00 C 1027.68 414.16 1024.47 402.48 1033.00 398.00
C 1033.05 399.76 1031.47 401.07 1032.00 403.00
C 1031.95 405.67 1032.04 408.33 1032.00 411.00
C 1037.26 407.80 1048.11 410.67 1052.00 414.00
C 1064.31 412.78 1075.72 413.52 1088.00 417.00
C 1091.31 399.01 1093.91 380.82 1094.00 362.00
C 1088.54 362.53 1084.27 366.68 1079.00 368.00
C 1069.84 371.47 1061.90 374.67 1052.32 377.32 C 1042.74 379.98 1033.32 383.89 1022.99 384.99 C 1012.66 386.09 1001.81 390.46 990.93 389.93 C 980.05 389.39 976.10 398.53 968.00 404.00
C 973.16 396.57 977.19 385.69 988.02 386.02 C 998.85 386.35 1010.92 383.23 1021.22 381.22 C 1031.52 379.21 1042.11 376.81 1052.01 374.01 C 1061.91 371.20 1070.17 366.75 1080.00 364.00
C 1086.03 361.43 1092.21 357.17 1099.00 356.00
C 1090.65 434.90 1081.80 513.69 1075.00 593.00
C 1072.97 591.23 1074.47 587.52 1074.00 585.00
C 1071.77 589.19 1073.96 596.04 1071.00 600.00
C 1071.48 597.17 1069.25 595.19 1068.00 593.00
C 1046.19 592.84 1035.45 585.09 1015.00 582.00
C 1014.61 580.43 1015.94 577.78 1014.00 577.00 Z"/>
</g>
<g fill="None" fill-opacity="0.0" stroke="#001F1E" stroke-opacity="1.00" stroke-width="0.3"><path d="
M 998.00 310.00 
C 1002.60 309.63 1007.38 310.00 1012.00 310.00
C 1013.00 310.00 1014.00 310.03 1015.00 310.00
C 1009.63 309.23 1003.46 308.95 998.00 310.00 Z"/>
</g>
<g fill="None" fill-opacity="0.0" stroke="#1FB36F" stroke-opacity="1.00" stroke-width="0.3"><path d="
M 933.00 330.00 
C 938.43 328.30 944.82 325.59 951.00 325.00
C 955.04 323.13 959.73 322.28 964.00 321.00
C 969.75 319.28 975.07 318.25 981.00 317.00
C 989.91 315.12 998.49 314.00 1008.00 314.00
C 1010.14 313.74 1013.42 312.24 1016.00 312.00
C 1015.53 310.02 1012.40 312.11 1012.00 310.00
C 1007.38 310.00 1002.60 309.63 998.00 310.00
C 974.42 311.87 953.10 318.44 933.00 330.00 Z"/>
</g>
<g fill="None" fill-opacity="0.0" stroke="#0F8659" stroke-opacity="1.00" stroke-width="0.3"><path d="
M 1008.00 314.00 
C 1015.69 314.00 1023.51 313.78 1031.00 315.00
C 1032.31 314.83 1033.68 315.13 1035.00 315.00
C 1034.76 313.12 1032.46 313.54 1032.00 312.00
C 1026.47 311.12 1020.69 309.85 1015.00 310.00
C 1014.00 310.03 1013.00 310.00 1012.00 310.00
C 1012.40 312.11 1015.53 310.02 1016.00 312.00
C 1013.42 312.24 1010.14 313.74 1008.00 314.00 Z"/>
</g>
<g fill="None" fill-opacity="0.0" stroke="#025D42" stroke-opacity="1.00" stroke-width="0.3"><path d="
M 1031.00 315.00 
C 1034.46 315.56 1040.30 316.94 1044.01 317.99 C 1047.72 319.05 1054.81 318.03 1054.00 318.00
C 1046.70 315.20 1039.90 313.26 1032.00 312.00
C 1032.46 313.54 1034.76 313.12 1035.00 315.00
C 1033.68 315.13 1032.31 314.83 1031.00 315.00 Z"/>
</g>
<g fill="None" fill-opacity="0.0" stroke="#013A32" stroke-opacity="1.00" stroke-width="0.3"><path d="
M 981.00 317.00 
C 990.28 317.19 1010.21 311.13 1014.00 322.00
C 1019.13 322.54 1022.51 326.15 1026.00 327.00
C 1026.45 326.85 1027.50 327.03 1028.00 327.00
C 1031.73 323.47 1038.07 325.08 1043.01 323.01 C 1047.94 320.93 1058.01 324.75 1059.00 325.00
C 1061.42 324.32 1066.90 326.67 1067.00 323.00
C 1062.57 321.63 1058.30 319.65 1054.00 318.00
C 1054.81 318.03 1047.72 319.05 1044.01 317.99 C 1040.30 316.94 1034.46 315.56 1031.00 315.00
C 1023.51 313.78 1015.69 314.00 1008.00 314.00
C 998.49 314.00 989.91 315.12 981.00 317.00 Z"/>
</g>
<g fill="None" fill-opacity="0.0" stroke="#014A3A" stroke-opacity="1.00" stroke-width="0.3"><path d="
M 981.00 317.00 
C 975.07 318.25 969.75 319.28 964.00 321.00
C 964.50 321.09 965.85 322.83 967.00 322.00
C 963.48 326.67 968.66 331.83 973.10 334.90 C 977.53 337.97 979.61 346.90 987.00 345.00
C 989.55 346.76 984.07 347.52 987.00 349.00
C 989.33 347.08 993.18 344.59 996.00 343.00
C 1005.49 337.66 1015.86 330.50 1026.00 327.00
C 1022.51 326.15 1019.13 322.54 1014.00 322.00
C 1010.21 311.13 990.28 317.19 981.00 317.00 Z"/>
</g>
<g fill="None" fill-opacity="0.0" stroke="#026245" stroke-opacity="1.00" stroke-width="0.3"><path d="
M 951.00 325.00 
C 949.17 325.85 947.02 327.13 945.00 328.00
C 942.69 331.04 949.70 333.28 950.75 336.25 C 951.79 339.23 952.82 344.46 954.00 348.00
C 962.78 346.54 964.21 358.47 971.07 359.93 C 977.94 361.38 981.81 352.68 987.00 349.00
C 984.07 347.52 989.55 346.76 987.00 345.00
C 979.61 346.90 977.53 337.97 973.10 334.90 C 968.66 331.83 963.48 326.67 967.00 322.00
C 965.85 322.83 964.50 321.09 964.00 321.00
C 959.73 322.28 955.04 323.13 951.00 325.00 Z"/>
</g>
<g fill="None" fill-opacity="0.0" stroke="#015F40" stroke-opacity="1.00" stroke-width="0.3"><path d="
M 1028.00 327.00 
C 1030.40 326.85 1033.43 327.95 1035.00 328.00
C 1042.55 326.10 1051.16 325.30 1059.00 325.00
C 1058.01 324.75 1047.94 320.93 1043.01 323.01 C 1038.07 325.08 1031.73 323.47 1028.00 327.00 Z"/>
</g>
<g fill="None" fill-opacity="0.0" stroke="#02905C" stroke-opacity="1.00" stroke-width="0.3"><path d="
M 933.00 330.00 
C 925.76 334.17 918.75 337.27 913.00 344.00
C 909.11 348.56 907.77 351.97 905.00 357.00
C 920.67 365.92 930.47 386.00 946.00 393.00
C 941.38 397.44 939.91 404.08 935.00 408.00
C 923.62 423.30 913.49 440.51 904.00 457.00
C 902.37 459.83 896.16 473.12 892.75 468.24 C 889.34 463.37 883.12 458.20 883.00 453.00
C 871.71 444.63 862.65 434.04 853.00 424.00
C 851.75 424.30 851.29 425.83 850.00 426.00
C 843.75 436.09 837.24 445.91 831.00 456.00
C 831.86 455.25 833.01 454.51 834.00 454.00
C 835.53 467.58 848.08 469.05 852.30 478.70 C 856.52 488.34 868.61 494.47 875.00 504.00
C 873.83 510.07 867.41 516.62 870.00 522.00
C 874.08 514.92 879.24 507.89 883.00 501.00
C 890.81 476.62 911.47 455.01 923.70 432.70 C 935.92 410.38 952.38 390.03 970.25 371.25 C 988.12 352.47 1010.18 334.24 1035.00 328.00
C 1033.43 327.95 1030.40 326.85 1028.00 327.00
C 1027.50 327.03 1026.45 326.85 1026.00 327.00
C 1015.86 330.50 1005.49 337.66 996.00 343.00
C 980.94 353.75 970.66 366.98 959.00 380.00
C 959.43 374.87 954.68 372.81 957.00 368.00
C 951.53 366.53 948.43 361.23 943.77 358.23 C 939.11 355.23 937.12 351.55 932.25 347.75 C 927.38 343.95 922.95 340.71 929.70 336.70 C 936.44 332.68 938.13 330.87 945.00 328.00
C 947.02 327.13 949.17 325.85 951.00 325.00
C 944.82 325.59 938.43 328.30 933.00 330.00 Z"/>
</g>
<g fill="None" fill-opacity="0.0" stroke="#02774F" stroke-opacity="1.00" stroke-width="0.3"><path d="
M 996.00 343.00 
C 993.18 344.59 989.33 347.08 987.00 349.00
C 981.81 352.68 977.94 361.38 971.07 359.93 C 964.21 358.47 962.78 346.54 954.00 348.00
C 952.82 344.46 951.79 339.23 950.75 336.25 C 949.70 333.28 942.69 331.04 945.00 328.00
C 938.13 330.87 936.44 332.68 929.70 336.70 C 922.95 340.71 927.38 343.95 932.25 347.75 C 937.12 351.55 939.11 355.23 943.77 358.23 C 948.43 361.23 951.53 366.53 957.00 368.00
C 954.68 372.81 959.43 374.87 959.00 380.00
C 970.66 366.98 980.94 353.75 996.00 343.00 Z"/>
</g>
<g fill="None" fill-opacity="0.0" stroke="#028C59" stroke-opacity="1.00" stroke-width="0.3"><path d="
M 680.00 468.00 
C 680.28 467.89 675.41 462.83 672.00 464.00 C 668.58 465.18 661.73 463.11 658.00 464.00
C 658.01 462.39 657.41 459.57 660.00 460.00
C 660.56 458.09 660.70 456.02 661.00 454.00
C 662.39 444.70 662.44 435.26 664.00 426.00
C 669.07 422.51 676.24 421.91 682.00 424.00
C 682.39 422.43 681.06 419.78 683.00 419.00
C 683.31 415.09 683.72 411.13 684.00 407.00
C 683.38 408.54 682.21 409.77 681.00 411.00
C 677.25 406.24 664.59 407.67 667.00 399.00 C 669.41 390.33 667.36 383.86 670.00 376.00
C 671.66 362.26 672.61 348.79 674.00 335.00
C 689.66 341.54 704.80 350.23 721.00 356.00
C 732.25 360.15 743.34 364.90 755.00 368.00
C 752.15 369.77 751.94 375.55 747.00 374.00
C 744.80 376.30 749.52 377.80 746.00 378.00
C 753.22 379.84 766.77 386.31 775.00 383.00 C 783.23 379.69 789.06 375.69 799.00 379.00 C 808.95 382.31 818.29 382.61 828.00 384.00
C 832.07 384.58 835.87 384.70 840.00 385.00
C 839.65 388.72 835.52 390.84 832.00 390.00
C 815.06 391.30 797.01 388.06 781.00 389.00
C 800.11 392.80 820.12 393.23 840.00 394.00
C 841.73 389.65 845.84 386.33 848.00 382.00
C 785.42 377.28 726.83 356.03 671.00 330.00
C 666.85 375.56 660.64 420.59 656.00 466.00
C 664.20 464.04 672.19 469.06 680.00 468.00 Z"/>
</g>
<g fill="None" fill-opacity="0.0" stroke="#29CC81" stroke-opacity="1.00" stroke-width="0.3"><path d="
M 670.00 376.00 
C 670.00 378.33 670.00 380.67 670.00 383.00
C 675.92 381.57 683.24 386.18 687.00 382.00
C 687.84 375.68 687.70 369.22 689.00 363.00
C 696.20 365.64 703.77 367.29 711.00 370.00
C 716.96 371.59 722.98 372.46 729.00 374.00
C 734.45 372.22 714.35 362.28 725.00 358.00
C 723.59 357.84 721.66 357.35 721.00 356.00
C 704.80 350.23 689.66 341.54 674.00 335.00
C 672.61 348.79 671.66 362.26 670.00 376.00 Z"/>
</g>
<g fill="None" fill-opacity="0.0" stroke="#0DAD6C" stroke-opacity="1.00" stroke-width="0.3"><path d="
M 907.00 348.00 
C 902.91 352.93 903.08 360.66 896.00 364.00
C 899.92 373.33 911.60 376.96 916.75 385.25 C 921.90 393.54 933.05 400.63 935.00 408.00
C 939.91 404.08 941.38 397.44 946.00 393.00
C 930.47 386.00 920.67 365.92 905.00 357.00
C 907.77 351.97 909.11 348.56 913.00 344.00
C 911.26 345.46 908.90 346.50 907.00 348.00 Z"/>
</g>
<g fill="None" fill-opacity="0.0" stroke="#2CCD83" stroke-opacity="1.00" stroke-width="0.3"><path d="
M 822.00 464.00 
C 821.84 464.11 825.96 464.03 826.00 464.00
C 827.52 461.25 829.36 458.65 831.00 456.00
C 837.24 445.91 843.75 436.09 850.00 426.00
C 853.10 421.00 856.18 415.58 861.00 412.00
C 865.25 420.30 874.20 430.06 881.75 437.25 C 889.30 444.44 893.62 458.54 904.00 457.00
C 913.49 440.51 923.62 423.30 935.00 408.00
C 933.05 400.63 921.90 393.54 916.75 385.25 C 911.60 376.96 899.92 373.33 896.00 364.00
C 903.08 360.66 902.91 352.93 907.00 348.00
C 869.07 377.94 846.29 424.76 822.00 464.00 Z"/>
</g>
<g fill="None" fill-opacity="0.0" stroke="#0CA969" stroke-opacity="1.00" stroke-width="0.3"><path d="
M 729.00 374.00 
C 734.24 375.34 740.41 376.57 746.00 378.00
C 749.52 377.80 744.80 376.30 747.00 374.00
C 751.94 375.55 752.15 369.77 755.00 368.00
C 743.34 364.90 732.25 360.15 721.00 356.00
C 721.66 357.35 723.59 357.84 725.00 358.00
C 714.35 362.28 734.45 372.22 729.00 374.00 Z"/>
</g>
<g fill="None" fill-opacity="0.0" stroke="#12283A" stroke-opacity="1.00" stroke-width="0.3"><path d="
M 1080.00 364.00 
C 1080.14 363.81 1079.93 367.12 1079.00 368.00
C 1084.27 366.68 1088.54 362.53 1094.00 362.00
C 1093.91 380.82 1091.31 399.01 1088.00 417.00
C 1075.72 413.52 1064.31 412.78 1052.00 414.00
C 1048.11 410.67 1037.26 407.80 1032.00 411.00
C 1032.04 408.33 1031.95 405.67 1032.00 403.00
C 1029.97 418.09 1027.75 433.99 1028.00 450.00
C 1037.57 449.95 1047.26 457.81 1057.08 458.07 C 1066.90 458.32 1075.53 461.37 1084.00 458.00
C 1082.57 490.72 1078.49 522.78 1075.00 555.00
C 1061.50 549.36 1045.32 550.09 1036.00 541.00
C 1030.70 543.51 1023.22 543.14 1023.00 539.00
C 1019.45 539.04 1019.77 541.93 1018.00 538.00
C 1016.91 551.05 1015.43 564.02 1014.00 577.00
C 1015.94 577.78 1014.61 580.43 1015.00 582.00
C 1035.45 585.09 1046.19 592.84 1068.00 593.00
C 1069.25 595.19 1071.48 597.17 1071.00 600.00
C 1073.96 596.04 1071.77 589.19 1074.00 585.00
C 1074.47 587.52 1072.97 591.23 1075.00 593.00
C 1081.80 513.69 1090.65 434.90 1099.00 356.00
C 1092.21 357.17 1086.03 361.43 1080.00 364.00 Z"/>
</g>
<g fill="None" fill-opacity="0.0" stroke="#015843" stroke-opacity="1.00" stroke-width="0.3"><path d="
M 687.00 382.00 
C 685.91 390.19 684.57 398.70 684.00 407.00
C 683.72 411.13 683.31 415.09 683.00 419.00
C 682.71 422.64 683.22 426.35 683.00 430.00
C 684.69 425.79 685.26 428.50 685.00 432.00
C 685.20 429.96 686.00 426.77 686.00 424.00
C 686.00 415.17 687.47 406.91 689.00 399.00
C 689.53 390.21 691.28 386.29 691.00 377.00 C 690.72 367.71 695.31 369.57 703.00 372.00
C 701.11 372.06 709.44 369.99 711.00 370.00
C 703.77 367.29 696.20 365.64 689.00 363.00
C 687.70 369.22 687.84 375.68 687.00 382.00 Z"/>
</g>
<g fill="None" fill-opacity="0.0" stroke="#384F62" stroke-opacity="1.00" stroke-width="0.3"><path d="
M 1079.00 368.00 
C 1079.93 367.12 1080.14 363.81 1080.00 364.00
C 1070.17 366.75 1061.91 371.20 1052.01 374.01 C 1042.11 376.81 1031.52 379.21 1021.22 381.22 C 1010.92 383.23 998.85 386.35 988.02 386.02 C 977.19 385.69 973.16 396.57 968.00 404.00
C 976.10 398.53 980.05 389.39 990.93 389.93 C 1001.81 390.46 1012.66 386.09 1022.99 384.99 C 1033.32 383.89 1042.74 379.98 1052.32 377.32 C 1061.90 374.67 1069.84 371.47 1079.00 368.00 Z"/>
</g>
<g fill="None" fill-opacity="0.0" stroke="#016F4B" stroke-opacity="1.00" stroke-width="0.3"><path d="
M 703.00 372.00 
C 728.30 380.00 754.55 385.31 781.00 389.00
C 797.01 388.06 815.06 391.30 832.00 390.00
C 829.86 389.96 825.88 387.96 823.00 389.00
C 828.19 387.38 823.03 385.95 821.00 384.00
C 823.33 384.00 825.67 384.00 828.00 384.00
C 818.29 382.61 808.95 382.31 799.00 379.00 C 789.06 375.69 783.23 379.69 775.00 383.00 C 766.77 386.31 753.22 379.84 746.00 378.00
C 740.41 376.57 734.24 375.34 729.00 374.00
C 722.98 372.46 716.96 371.59 711.00 370.00
C 709.44 369.99 701.11 372.06 703.00 372.00 Z"/>
</g>
<g fill="None" fill-opacity="0.0" stroke="#12B371" stroke-opacity="1.00" stroke-width="0.3"><path d="
M 684.00 407.00 
C 684.57 398.70 685.91 390.19 687.00 382.00
C 683.24 386.18 675.92 381.57 670.00 383.00
C 670.00 380.67 670.00 378.33 670.00 376.00
C 667.36 383.86 669.41 390.33 667.00 399.00 C 664.59 407.67 677.25 406.24 681.00 411.00
C 682.21 409.77 683.38 408.54 684.00 407.00 Z"/>
</g>
<g fill="None" fill-opacity="0.0" stroke="#015840" stroke-opacity="1.00" stroke-width="0.3"><path d="
M 832.00 390.00 
C 835.52 390.84 839.65 388.72 840.00 385.00
C 835.87 384.70 832.07 384.58 828.00 384.00
C 825.67 384.00 823.33 384.00 821.00 384.00
C 823.03 385.95 828.19 387.38 823.00 389.00
C 825.88 387.96 829.86 389.96 832.00 390.00 Z"/>
</g>
<g fill="None" fill-opacity="0.0" stroke="#2C4356" stroke-opacity="1.00" stroke-width="0.3"><path d="
M 1023.00 452.00 
C 1023.78 457.37 1025.11 454.38 1026.00 451.00
C 1024.88 467.11 1024.18 485.33 1022.00 501.00 C 1019.83 516.67 1019.93 534.21 1014.00 546.00
C 1010.36 567.53 1009.22 590.73 1007.00 613.00
C 998.08 610.84 989.06 609.59 980.00 608.00
C 977.79 608.21 974.83 609.81 972.00 610.00
C 984.25 612.15 997.21 615.52 1010.00 617.00
C 1011.18 603.63 1011.91 590.12 1014.00 577.00
C 1015.43 564.02 1016.91 551.05 1018.00 538.00
C 1019.77 541.93 1019.45 539.04 1023.00 539.00
C 1023.22 543.14 1030.70 543.51 1036.00 541.00
C 1045.32 550.09 1061.50 549.36 1075.00 555.00
C 1078.49 522.78 1082.57 490.72 1084.00 458.00
C 1075.53 461.37 1066.90 458.32 1057.08 458.07 C 1047.26 457.81 1037.57 449.95 1028.00 450.00
C 1027.75 433.99 1029.97 418.09 1032.00 403.00
C 1031.47 401.07 1033.05 399.76 1033.00 398.00
C 1024.47 402.48 1027.68 414.16 1026.00 423.00 C 1024.32 431.84 1024.22 442.87 1023.00 452.00 Z"/>
</g>
<g fill="None" fill-opacity="0.0" stroke="#022F2F" stroke-opacity="1.00" stroke-width="0.3"><path d="
M 686.00 424.00 
C 687.10 416.28 688.50 407.44 689.00 399.00
C 687.47 406.91 686.00 415.17 686.00 424.00 Z"/>
</g>
<g fill="None" fill-opacity="0.0" stroke="#11B270" stroke-opacity="1.00" stroke-width="0.3"><path d="
M 850.00 426.00 
C 851.29 425.83 851.75 424.30 853.00 424.00
C 862.65 434.04 871.71 444.63 883.00 453.00
C 883.12 458.20 889.34 463.37 892.75 468.24 C 896.16 473.12 902.37 459.83 904.00 457.00
C 893.62 458.54 889.30 444.44 881.75 437.25 C 874.20 430.06 865.25 420.30 861.00 412.00
C 856.18 415.58 853.10 421.00 850.00 426.00 Z"/>
</g>
<g fill="None" fill-opacity="0.0" stroke="#027851" stroke-opacity="1.00" stroke-width="0.3"><path d="
M 661.00 454.00 
C 667.15 450.58 672.49 447.87 680.00 448.00
C 680.66 453.58 678.34 458.40 679.00 464.00
C 673.23 461.57 663.46 465.34 660.00 460.00
C 657.41 459.57 658.01 462.39 658.00 464.00
C 661.73 463.11 668.58 465.18 672.00 464.00 C 675.41 462.83 680.28 467.89 680.00 468.00
C 684.99 467.33 681.89 456.90 683.22 451.22 C 684.55 445.55 685.39 438.29 685.00 432.00
C 685.26 428.50 684.69 425.79 683.00 430.00
C 683.22 426.35 682.71 422.64 683.00 419.00
C 681.06 419.78 682.39 422.43 682.00 424.00
C 676.24 421.91 669.07 422.51 664.00 426.00
C 662.44 435.26 662.39 444.70 661.00 454.00 Z"/>
</g>
<g fill="None" fill-opacity="0.0" stroke="#016448" stroke-opacity="1.00" stroke-width="0.3"><path d="
M 661.00 454.00 
C 660.70 456.02 660.56 458.09 660.00 460.00
C 663.46 465.34 673.23 461.57 679.00 464.00
C 678.34 458.40 680.66 453.58 680.00 448.00
C 672.49 447.87 667.15 450.58 661.00 454.00 Z"/>
</g>
<g fill="None" fill-opacity="0.0" stroke="#435D70" stroke-opacity="1.00" stroke-width="0.3"><path d="
M 1023.00 452.00 
C 1018.84 483.19 1017.05 514.46 1014.00 546.00
C 1019.93 534.21 1019.83 516.67 1022.00 501.00 C 1024.18 485.33 1024.88 467.11 1026.00 451.00
C 1025.11 454.38 1023.78 457.37 1023.00 452.00 Z"/>
</g>
<g fill="None" fill-opacity="0.0" stroke="#027550" stroke-opacity="1.00" stroke-width="0.3"><path d="
M 831.00 456.00 
C 829.36 458.65 827.52 461.25 826.00 464.00
C 825.33 465.21 824.82 466.71 824.00 468.00
C 823.35 473.11 831.50 478.61 834.30 483.70 C 837.11 488.79 841.72 496.02 846.92 500.08 C 852.11 504.15 856.99 510.75 861.25 514.75 C 865.51 518.75 868.04 517.31 865.23 522.23 C 862.42 527.15 863.81 527.86 860.23 531.23 C 856.65 534.60 859.96 540.70 860.00 540.00
C 863.44 534.02 866.57 527.97 870.00 522.00
C 867.41 516.62 873.83 510.07 875.00 504.00
C 868.61 494.47 856.52 488.34 852.30 478.70 C 848.08 469.05 835.53 467.58 834.00 454.00
C 833.01 454.51 831.86 455.25 831.00 456.00 Z"/>
</g>
<g fill="None" fill-opacity="0.0" stroke="#0A9862" stroke-opacity="1.00" stroke-width="0.3"><path d="
M 822.00 464.00 
C 815.23 474.94 808.82 487.10 802.00 498.00
C 804.48 495.44 806.90 495.34 809.00 493.00
C 809.76 491.68 810.28 490.33 811.00 489.00
C 814.97 481.71 819.56 475.00 824.00 468.00
C 824.82 466.71 825.33 465.21 826.00 464.00
C 825.96 464.03 821.84 464.11 822.00 464.00 Z"/>
</g>
<g fill="None" fill-opacity="0.0" stroke="#026147" stroke-opacity="1.00" stroke-width="0.3"><path d="
M 811.00 489.00 
C 813.54 487.23 812.84 490.14 813.00 492.00
C 821.26 490.74 817.08 503.83 824.25 505.75 C 831.41 507.68 832.78 515.62 838.25 519.75 C 843.71 523.88 846.34 529.83 854.08 530.06 C 861.83 530.30 855.03 540.62 851.75 545.75 C 848.46 550.87 845.55 558.72 841.00 563.00
C 837.67 567.95 835.05 574.67 831.70 579.70 C 828.34 584.72 832.02 586.60 832.00 587.00
C 839.37 574.19 847.77 561.70 855.00 549.00
C 856.62 546.15 858.29 542.97 860.00 540.00
C 859.96 540.70 856.65 534.60 860.23 531.23 C 863.81 527.86 862.42 527.15 865.23 522.23 C 868.04 517.31 865.51 518.75 861.25 514.75 C 856.99 510.75 852.11 504.15 846.92 500.08 C 841.72 496.02 837.11 488.79 834.30 483.70 C 831.50 478.61 823.35 473.11 824.00 468.00
C 819.56 475.00 814.97 481.71 811.00 489.00 Z"/>
</g>
<g fill="None" fill-opacity="0.0" stroke="#052F22" stroke-opacity="1.00" stroke-width="0.3"><path d="
M 644.00 485.00 
C 649.73 484.46 656.26 484.61 662.00 485.00
C 656.40 484.00 649.68 483.80 644.00 485.00 Z"/>
</g>
<g fill="None" fill-opacity="0.0" stroke="#2ACD81" stroke-opacity="1.00" stroke-width="0.3"><path d="
M 616.00 492.00 
C 617.00 492.13 619.40 494.90 620.00 495.00
C 636.14 489.48 654.00 487.42 671.00 491.00
C 677.25 492.32 682.61 493.93 688.00 497.00
C 693.78 500.29 698.12 503.12 703.00 508.00
C 704.67 509.67 705.72 511.44 707.00 513.00
C 710.54 517.31 713.83 521.37 717.00 526.00
C 720.01 530.38 723.80 535.17 724.00 541.00
C 714.71 546.66 704.43 553.00 695.30 560.30 C 686.18 567.60 675.49 574.81 666.00 580.00
C 668.54 585.49 667.19 586.65 667.00 590.00
C 677.16 611.98 685.29 636.75 709.00 649.00
C 710.27 648.97 711.73 648.46 712.00 647.00
C 710.67 646.01 708.43 645.95 708.00 644.00
C 707.57 643.83 707.00 644.00 707.00 644.00
C 706.04 643.65 704.78 642.59 704.00 642.00
C 697.83 637.33 692.21 630.60 689.00 624.00
C 696.79 617.84 705.34 614.07 713.70 607.70 C 722.05 601.32 728.74 598.61 736.75 591.75 C 744.75 584.88 755.02 583.05 760.00 596.00
C 760.71 596.96 761.33 598.07 762.00 599.00
C 762.69 599.96 763.32 601.10 764.00 602.00
C 768.27 606.65 771.08 607.17 776.00 609.00
C 772.51 605.74 769.14 601.53 766.00 598.00
C 729.13 562.55 724.40 489.25 662.00 485.00
C 656.26 484.61 649.73 484.46 644.00 485.00
C 634.33 485.91 625.07 488.90 616.00 492.00 Z"/>
</g>
<g fill="None" fill-opacity="0.0" stroke="#014B3E" stroke-opacity="1.00" stroke-width="0.3"><path d="
M 811.00 489.00 
C 810.28 490.33 809.76 491.68 809.00 493.00
C 803.02 503.40 795.95 513.74 788.00 520.00
C 780.47 530.86 774.06 542.59 767.00 554.00
C 765.37 556.63 762.19 560.04 764.00 563.00
C 773.43 552.56 780.17 539.43 788.00 528.00
C 789.62 525.15 791.15 521.89 793.00 519.00
C 807.76 526.73 809.77 542.20 825.00 548.00
C 823.25 555.12 835.47 558.69 836.00 564.00
C 837.54 563.65 839.90 560.81 841.00 563.00
C 845.55 558.72 848.46 550.87 851.75 545.75 C 855.03 540.62 861.83 530.30 854.08 530.06 C 846.34 529.83 843.71 523.88 838.25 519.75 C 832.78 515.62 831.41 507.68 824.25 505.75 C 817.08 503.83 821.26 490.74 813.00 492.00
C 812.84 490.14 813.54 487.23 811.00 489.00 Z"/>
</g>
<g fill="None" fill-opacity="0.0" stroke="#014038" stroke-opacity="1.00" stroke-width="0.3"><path d="
M 620.00 495.00 
C 611.55 497.89 604.05 502.06 596.00 506.00
C 595.23 506.81 594.53 508.05 594.00 509.00
C 605.45 507.33 614.73 513.85 624.00 519.00
C 623.82 514.73 633.68 516.28 635.70 512.70 C 637.71 509.12 643.88 508.20 647.08 505.08 C 650.29 501.96 654.69 500.11 658.08 497.08 C 661.47 494.05 666.79 491.07 671.00 491.00
C 654.00 487.42 636.14 489.48 620.00 495.00 Z"/>
</g>
<g fill="None" fill-opacity="0.0" stroke="#015340" stroke-opacity="1.00" stroke-width="0.3"><path d="
M 624.00 519.00 
C 624.81 519.76 625.30 521.23 626.00 522.00
C 629.35 524.65 632.28 527.82 635.00 531.00
C 641.40 535.65 645.65 525.43 651.75 522.75 C 657.84 520.06 664.46 514.04 669.25 509.25 C 674.05 504.47 685.30 505.55 688.00 497.00
C 682.61 493.93 677.25 492.32 671.00 491.00
C 666.79 491.07 661.47 494.05 658.08 497.08 C 654.69 500.11 650.29 501.96 647.08 505.08 C 643.88 508.20 637.71 509.12 635.70 512.70 C 633.68 516.28 623.82 514.73 624.00 519.00 Z"/>
</g>
<g fill="None" fill-opacity="0.0" stroke="#06945D" stroke-opacity="1.00" stroke-width="0.3"><path d="
M 594.00 503.00 
C 592.35 504.38 590.41 506.59 589.00 508.00
C 589.98 507.55 593.90 507.03 596.00 506.00
C 604.05 502.06 611.55 497.89 620.00 495.00
C 619.40 494.90 617.00 492.13 616.00 492.00
C 608.13 494.69 601.20 498.72 594.00 503.00 Z"/>
</g>
<g fill="None" fill-opacity="0.0" stroke="#047651" stroke-opacity="1.00" stroke-width="0.3"><path d="
M 802.00 498.00 
C 795.95 504.23 792.98 512.81 788.00 520.00
C 795.95 513.74 803.02 503.40 809.00 493.00
C 806.90 495.34 804.48 495.44 802.00 498.00 Z"/>
</g>
<g fill="None" fill-opacity="0.0" stroke="#016849" stroke-opacity="1.00" stroke-width="0.3"><path d="
M 635.00 531.00 
C 636.66 532.94 638.38 535.11 640.00 537.00
C 640.98 537.91 642.75 538.46 643.00 540.00
C 653.29 538.06 665.36 532.38 672.70 524.70 C 680.03 517.02 693.92 515.65 695.00 505.00
C 698.33 503.58 701.03 509.30 703.00 508.00
C 698.12 503.12 693.78 500.29 688.00 497.00
C 685.30 505.55 674.05 504.47 669.25 509.25 C 664.46 514.04 657.84 520.06 651.75 522.75 C 645.65 525.43 641.40 535.65 635.00 531.00 Z"/>
</g>
<g fill="None" fill-opacity="0.0" stroke="#001114" stroke-opacity="1.00" stroke-width="0.3"><path d="
M 870.00 522.00 
C 866.57 527.97 863.44 534.02 860.00 540.00
C 858.29 542.97 856.62 546.15 855.00 549.00
C 865.39 535.71 877.81 517.21 883.00 501.00
C 879.24 507.89 874.08 514.92 870.00 522.00 Z"/>
</g>
<g fill="None" fill-opacity="0.0" stroke="#013830" stroke-opacity="1.00" stroke-width="0.3"><path d="
M 597.00 512.00 
C 593.94 511.41 589.74 510.37 586.00 511.00
C 586.67 509.80 587.64 508.42 589.00 508.00
C 590.41 506.59 592.35 504.38 594.00 503.00
C 590.39 504.77 586.18 508.05 585.00 512.00
C 588.98 512.24 593.03 511.68 597.00 512.00 Z"/>
</g>
<g fill="None" fill-opacity="0.0" stroke="#017A51" stroke-opacity="1.00" stroke-width="0.3"><path d="
M 640.00 537.00 
C 644.85 542.67 646.96 550.93 654.25 548.25 C 661.54 545.56 663.93 537.23 671.23 535.23 C 678.53 533.23 683.74 526.02 690.01 524.01 C 696.28 522.00 701.77 511.12 707.00 513.00
C 705.72 511.44 704.67 509.67 703.00 508.00
C 701.03 509.30 698.33 503.58 695.00 505.00
C 693.92 515.65 680.03 517.02 672.70 524.70 C 665.36 532.38 653.29 538.06 643.00 540.00
C 642.75 538.46 640.98 537.91 640.00 537.00 Z"/>
</g>
<g fill="None" fill-opacity="0.0" stroke="#026B4A" stroke-opacity="1.00" stroke-width="0.3"><path d="
M 589.00 508.00 
C 587.64 508.42 586.67 509.80 586.00 511.00
C 589.74 510.37 593.94 511.41 597.00 512.00
C 603.55 512.52 610.33 515.74 616.00 519.00
C 619.24 519.75 622.28 519.06 626.00 522.00
C 625.30 521.23 624.81 519.76 624.00 519.00
C 614.73 513.85 605.45 507.33 594.00 509.00
C 594.53 508.05 595.23 506.81 596.00 506.00
C 593.90 507.03 589.98 507.55 589.00 508.00 Z"/>
</g>
<g fill="None" fill-opacity="0.0" stroke="#01935D" stroke-opacity="1.00" stroke-width="0.3"><path d="
M 640.00 537.00 
C 638.38 535.11 636.66 532.94 635.00 531.00
C 632.28 527.82 629.35 524.65 626.00 522.00
C 622.28 519.06 619.24 519.75 616.00 519.00
C 640.35 533.01 656.20 566.64 667.00 590.00
C 667.19 586.65 668.54 585.49 666.00 580.00
C 664.36 576.44 661.27 572.56 662.00 568.00
C 670.43 562.24 683.48 556.33 691.25 548.25 C 699.02 540.16 714.13 536.02 717.00 526.00
C 713.83 521.37 710.54 517.31 707.00 513.00
C 701.77 511.12 696.28 522.00 690.01 524.01 C 683.74 526.02 678.53 533.23 671.23 535.23 C 663.93 537.23 661.54 545.56 654.25 548.25 C 646.96 550.93 644.85 542.67 640.00 537.00 Z"/>
</g>
<g fill="None" fill-opacity="0.0" stroke="#013736" stroke-opacity="1.00" stroke-width="0.3"><path d="
M 788.00 528.00 
C 786.42 532.66 790.91 543.00 796.00 542.00
C 794.55 546.78 797.08 546.41 800.00 546.00
C 798.47 552.85 809.32 553.29 807.00 559.00
C 816.89 563.56 822.56 573.46 831.00 579.00
C 824.86 588.42 820.18 599.16 812.00 607.00
C 812.00 607.00 812.25 607.78 812.00 608.00
C 815.10 605.69 820.18 602.28 822.00 601.00
C 825.77 596.63 829.04 592.14 832.00 587.00
C 832.02 586.60 828.34 584.72 831.70 579.70 C 835.05 574.67 837.67 567.95 841.00 563.00
C 839.90 560.81 837.54 563.65 836.00 564.00
C 835.47 558.69 823.25 555.12 825.00 548.00
C 809.77 542.20 807.76 526.73 793.00 519.00
C 791.15 521.89 789.62 525.15 788.00 528.00 Z"/>
</g>
<g fill="None" fill-opacity="0.0" stroke="#0BB26E" stroke-opacity="1.00" stroke-width="0.3"><path d="
M 666.00 580.00 
C 675.49 574.81 686.18 567.60 695.30 560.30 C 704.43 553.00 714.71 546.66 724.00 541.00
C 723.80 535.17 720.01 530.38 717.00 526.00
C 714.13 536.02 699.02 540.16 691.25 548.25 C 683.48 556.33 670.43 562.24 662.00 568.00
C 661.27 572.56 664.36 576.44 666.00 580.00 Z"/>
</g>
<g fill="None" fill-opacity="0.0" stroke="#00242D" stroke-opacity="1.00" stroke-width="0.3"><path d="
M 767.00 554.00 
C 761.30 561.44 754.13 569.73 752.00 579.00
C 758.82 574.89 762.49 566.09 768.00 560.00
C 772.43 562.94 777.30 564.91 782.00 567.00
C 779.81 572.33 790.22 571.67 786.00 577.00
C 798.30 580.39 800.09 593.77 808.00 600.00
C 805.99 602.62 808.95 605.22 809.00 608.00
C 809.86 607.29 811.09 607.37 812.00 607.00
C 820.18 599.16 824.86 588.42 831.00 579.00
C 822.56 573.46 816.89 563.56 807.00 559.00
C 809.32 553.29 798.47 552.85 800.00 546.00
C 797.08 546.41 794.55 546.78 796.00 542.00
C 790.91 543.00 786.42 532.66 788.00 528.00
C 780.17 539.43 773.43 552.56 764.00 563.00
C 762.19 560.04 765.37 556.63 767.00 554.00 Z"/>
</g>
<g fill="None" fill-opacity="0.0" stroke="#09A567" stroke-opacity="1.00" stroke-width="0.3"><path d="
M 704.00 642.00 
C 702.20 640.35 700.56 637.82 699.00 636.00
C 704.88 634.99 704.85 625.52 711.08 623.08 C 717.31 620.63 718.35 614.42 725.08 612.08 C 731.82 609.74 734.96 605.31 739.89 601.89 C 744.83 598.47 749.13 593.07 755.00 591.00
C 756.26 592.93 758.00 594.91 760.00 596.00
C 755.02 583.05 744.75 584.88 736.75 591.75 C 728.74 598.61 722.05 601.32 713.70 607.70 C 705.34 614.07 696.79 617.84 689.00 624.00
C 692.21 630.60 697.83 637.33 704.00 642.00 Z"/>
</g>
<g fill="None" fill-opacity="0.0" stroke="#018E5A" stroke-opacity="1.00" stroke-width="0.3"><path d="
M 704.00 642.00 
C 704.78 642.59 706.04 643.65 707.00 644.00
C 705.89 642.94 704.87 641.21 704.00 640.00
C 715.92 638.32 724.09 627.13 734.23 621.23 C 744.37 615.33 753.72 607.28 758.00 596.00
C 759.66 596.54 760.33 598.56 762.00 599.00
C 761.33 598.07 760.71 596.96 760.00 596.00
C 758.00 594.91 756.26 592.93 755.00 591.00
C 749.13 593.07 744.83 598.47 739.89 601.89 C 734.96 605.31 731.82 609.74 725.08 612.08 C 718.35 614.42 717.31 620.63 711.08 623.08 C 704.85 625.52 704.88 634.99 699.00 636.00
C 700.56 637.82 702.20 640.35 704.00 642.00 Z"/>
</g>
<g fill="None" fill-opacity="0.0" stroke="#017A50" stroke-opacity="1.00" stroke-width="0.3"><path d="
M 707.00 644.00 
C 707.00 644.00 707.57 643.83 708.00 644.00
C 713.58 646.19 718.11 648.65 724.00 650.00
C 725.83 648.38 723.91 646.86 724.00 645.00
C 734.53 640.97 738.11 633.18 746.23 627.23 C 754.35 621.28 760.75 611.61 770.00 609.00
C 767.89 607.17 765.66 604.19 764.00 602.00
C 763.32 601.10 762.69 599.96 762.00 599.00
C 760.33 598.56 759.66 596.54 758.00 596.00
C 753.72 607.28 744.37 615.33 734.23 621.23 C 724.09 627.13 715.92 638.32 704.00 640.00
C 704.87 641.21 705.89 642.94 707.00 644.00 Z"/>
</g>
<g fill="None" fill-opacity="0.0" stroke="#002821" stroke-opacity="1.00" stroke-width="0.3"><path d="
M 776.00 609.00 
C 776.54 609.50 777.38 609.68 778.00 610.00
C 773.97 606.85 769.80 601.66 766.00 598.00
C 769.14 601.53 772.51 605.74 776.00 609.00 Z"/>
</g>
<g fill="None" fill-opacity="0.0" stroke="#0D9A60" stroke-opacity="1.00" stroke-width="0.3"><path d="
M 812.00 608.00 
C 801.55 617.13 789.55 615.91 778.00 610.00
C 777.38 609.68 776.54 609.50 776.00 609.00
C 771.08 607.17 768.27 606.65 764.00 602.00
C 765.66 604.19 767.89 607.17 770.00 609.00
C 773.58 612.12 779.79 616.70 784.00 618.00
C 795.00 621.38 809.45 616.67 817.00 608.00
C 818.62 605.64 820.08 603.22 822.00 601.00
C 820.18 602.28 815.10 605.69 812.00 608.00 Z"/>
</g>
<g fill="None" fill-opacity="0.0" stroke="#425A6E" stroke-opacity="1.00" stroke-width="0.3"><path d="
M 888.00 604.00 
C 886.95 604.26 884.45 605.58 884.00 607.00
C 894.33 607.00 904.67 607.00 915.00 607.00
C 934.07 607.00 953.62 611.25 972.00 610.00
C 974.83 609.81 977.79 608.21 980.00 608.00
C 949.75 602.68 919.23 604.00 888.00 604.00 Z"/>
</g>
<g fill="None" fill-opacity="0.0" stroke="#213A4E" stroke-opacity="1.00" stroke-width="0.3"><path d="
M 915.00 607.00 
C 904.67 607.00 894.33 607.00 884.00 607.00
C 884.45 605.58 886.95 604.26 888.00 604.00
C 873.63 607.51 850.84 599.62 845.00 617.00
C 849.69 613.15 868.01 617.92 861.00 610.00
C 878.87 608.61 897.54 608.69 915.00 607.00 Z"/>
</g>
<g fill="None" fill-opacity="0.0" stroke="#016045" stroke-opacity="1.00" stroke-width="0.3"><path d="
M 724.00 650.00 
C 726.09 650.48 727.68 650.88 730.00 651.00
C 738.62 651.45 746.90 649.22 755.00 651.00
C 754.12 653.07 750.96 652.21 750.00 654.00
C 766.47 650.71 780.66 642.21 794.00 632.00
C 797.52 628.75 800.74 624.43 804.00 621.00
C 796.51 622.55 790.93 630.90 782.92 634.92 C 774.92 638.95 766.88 647.13 757.00 647.00
C 757.31 639.43 763.18 637.33 769.07 634.07 C 774.96 630.81 776.11 621.27 784.00 620.00
C 783.02 619.05 781.19 617.97 784.00 618.00
C 779.79 616.70 773.58 612.12 770.00 609.00
C 760.75 611.61 754.35 621.28 746.23 627.23 C 738.11 633.18 734.53 640.97 724.00 645.00
C 723.91 646.86 725.83 648.38 724.00 650.00 Z"/>
</g>
<g fill="None" fill-opacity="0.0" stroke="#014B3B" stroke-opacity="1.00" stroke-width="0.3"><path d="
M 784.00 618.00 
C 781.19 617.97 783.02 619.05 784.00 620.00
C 776.11 621.27 774.96 630.81 769.07 634.07 C 763.18 637.33 757.31 639.43 757.00 647.00
C 766.88 647.13 774.92 638.95 782.92 634.92 C 790.93 630.90 796.51 622.55 804.00 621.00
C 800.74 624.43 797.52 628.75 794.00 632.00
C 795.26 631.04 796.74 630.04 798.00 629.00
C 801.62 625.52 805.49 621.51 809.00 618.00
C 811.76 614.77 814.59 611.52 817.00 608.00
C 809.45 616.67 795.00 621.38 784.00 618.00 Z"/>
</g>
<g fill="None" fill-opacity="0.0" stroke="#001A1C" stroke-opacity="1.00" stroke-width="0.3"><path d="
M 798.00 629.00 
C 801.95 625.76 805.64 621.93 809.00 618.00
C 805.49 621.51 801.62 625.52 798.00 629.00 Z"/>
</g>
<g fill="None" fill-opacity="0.0" stroke="#09A265" stroke-opacity="1.00" stroke-width="0.3"><path d="
M 709.00 649.00 
C 714.23 651.70 720.80 654.45 727.00 655.00
C 730.28 655.29 733.71 655.00 737.00 655.00
C 735.01 654.54 732.01 651.55 730.00 651.00
C 727.68 650.88 726.09 650.48 724.00 650.00
C 718.11 648.65 713.58 646.19 708.00 644.00
C 708.43 645.95 710.67 646.01 712.00 647.00
C 711.73 648.46 710.27 648.97 709.00 649.00 Z"/>
</g>
<g fill="None" fill-opacity="0.0" stroke="#038355" stroke-opacity="1.00" stroke-width="0.3"><path d="
M 730.00 651.00 
C 732.01 651.55 735.01 654.54 737.00 655.00
C 738.33 655.00 739.67 655.00 741.00 655.00
C 744.23 654.99 746.99 654.60 750.00 654.00
C 750.96 652.21 754.12 653.07 755.00 651.00
C 746.90 649.22 738.62 651.45 730.00 651.00 Z"/>
</g>
<g fill="None" fill-opacity="0.0" stroke="#001C1A" stroke-opacity="1.00" stroke-width="0.3"><path d="
M 741.00 655.00 
C 739.67 655.00 738.33 655.00 737.00 655.00
C 733.71 655.00 730.28 655.29 727.00 655.00
C 731.56 655.93 736.42 655.65 741.00 655.00 Z"/>
</g>
<g fill="#030F1F" fill-opacity="1.00" stroke="None">
<path d="
M 0.00 941.00 
L 1672.00 941.00
L 1672.00 0.00
L 0.00 0.00
L 0.00 941.00
M 1015.00 310.00 
C 1020.69 309.85 1026.47 311.12 1032.00 312.00
C 1039.90 313.26 1046.70 315.20 1054.00 318.00
C 1058.30 319.65 1062.57 321.63 1067.00 323.00
C 1066.90 326.67 1061.42 324.32 1059.00 325.00
C 1051.16 325.30 1042.55 326.10 1035.00 328.00
C 1010.18 334.24 988.12 352.47 970.25 371.25 C 952.38 390.03 935.92 410.38 923.70 432.70 C 911.47 455.01 890.81 476.62 883.00 501.00
C 877.81 517.21 865.39 535.71 855.00 549.00
C 847.77 561.70 839.37 574.19 832.00 587.00
C 829.04 592.14 825.77 596.63 822.00 601.00
C 820.08 603.22 818.62 605.64 817.00 608.00
C 814.59 611.52 811.76 614.77 809.00 618.00
C 805.64 621.93 801.95 625.76 798.00 629.00
C 796.74 630.04 795.26 631.04 794.00 632.00
C 780.66 642.21 766.47 650.71 750.00 654.00
C 746.99 654.60 744.23 654.99 741.00 655.00
C 736.42 655.65 731.56 655.93 727.00 655.00
C 720.80 654.45 714.23 651.70 709.00 649.00
C 685.29 636.75 677.16 611.98 667.00 590.00
C 656.20 566.64 640.35 533.01 616.00 519.00
C 610.33 515.74 603.55 512.52 597.00 512.00
C 593.03 511.68 588.98 512.24 585.00 512.00
C 586.18 508.05 590.39 504.77 594.00 503.00
C 601.20 498.72 608.13 494.69 616.00 492.00
C 625.07 488.90 634.33 485.91 644.00 485.00
C 649.68 483.80 656.40 484.00 662.00 485.00
C 724.40 489.25 729.13 562.55 766.00 598.00
C 769.80 601.66 773.97 606.85 778.00 610.00
C 789.55 615.91 801.55 617.13 812.00 608.00
C 812.25 607.78 812.00 607.00 812.00 607.00
C 811.09 607.37 809.86 607.29 809.00 608.00
C 808.95 605.22 805.99 602.62 808.00 600.00
C 800.09 593.77 798.30 580.39 786.00 577.00
C 790.22 571.67 779.81 572.33 782.00 567.00
C 777.30 564.91 772.43 562.94 768.00 560.00
C 762.49 566.09 758.82 574.89 752.00 579.00
C 754.13 569.73 761.30 561.44 767.00 554.00
C 774.06 542.59 780.47 530.86 788.00 520.00
C 792.98 512.81 795.95 504.23 802.00 498.00
C 808.82 487.10 815.23 474.94 822.00 464.00
C 846.29 424.76 869.07 377.94 907.00 348.00
C 908.90 346.50 911.26 345.46 913.00 344.00
C 918.75 337.27 925.76 334.17 933.00 330.00
C 953.10 318.44 974.42 311.87 998.00 310.00
C 1003.46 308.95 1009.63 309.23 1015.00 310.00
M 781.00 389.00 
C 754.55 385.31 728.30 380.00 703.00 372.00
C 695.31 369.57 690.72 367.71 691.00 377.00 C 691.28 386.29 689.53 390.21 689.00 399.00
C 688.50 407.44 687.10 416.28 686.00 424.00
C 686.00 426.77 685.20 429.96 685.00 432.00
C 685.39 438.29 684.55 445.55 683.22 451.22 C 681.89 456.90 684.99 467.33 680.00 468.00
C 672.19 469.06 664.20 464.04 656.00 466.00
C 660.64 420.59 666.85 375.56 671.00 330.00
C 726.83 356.03 785.42 377.28 848.00 382.00
C 845.84 386.33 841.73 389.65 840.00 394.00
C 820.12 393.23 800.11 392.80 781.00 389.00
M 1014.00 577.00 
C 1011.91 590.12 1011.18 603.63 1010.00 617.00
C 997.21 615.52 984.25 612.15 972.00 610.00
C 953.62 611.25 934.07 607.00 915.00 607.00
C 897.54 608.69 878.87 608.61 861.00 610.00
C 868.01 617.92 849.69 613.15 845.00 617.00
C 850.84 599.62 873.63 607.51 888.00 604.00
C 919.23 604.00 949.75 602.68 980.00 608.00
C 989.06 609.59 998.08 610.84 1007.00 613.00
C 1009.22 590.73 1010.36 567.53 1014.00 546.00
C 1017.05 514.46 1018.84 483.19 1023.00 452.00
C 1024.22 442.87 1024.32 431.84 1026.00 423.00 C 1027.68 414.16 1024.47 402.48 1033.00 398.00
C 1033.05 399.76 1031.47 401.07 1032.00 403.00
C 1031.95 405.67 1032.04 408.33 1032.00 411.00
C 1037.26 407.80 1048.11 410.67 1052.00 414.00
C 1064.31 412.78 1075.72 413.52 1088.00 417.00
C 1091.31 399.01 1093.91 380.82 1094.00 362.00
C 1088.54 362.53 1084.27 366.68 1079.00 368.00
C 1069.84 371.47 1061.90 374.67 1052.32 377.32 C 1042.74 379.98 1033.32 383.89 1022.99 384.99 C 1012.66 386.09 1001.81 390.46 990.93 389.93 C 980.05 389.39 976.10 398.53 968.00 404.00
C 973.16 396.57 977.19 385.69 988.02 386.02 C 998.85 386.35 1010.92 383.23 1021.22 381.22 C 1031.52 379.21 1042.11 376.81 1052.01 374.01 C 1061.91 371.20 1070.17 366.75 1080.00 364.00
C 1086.03 361.43 1092.21 357.17 1099.00 356.00
C 1090.65 434.90 1081.80 513.69 1075.00 593.00
C 1072.97 591.23 1074.47 587.52 1074.00 585.00
C 1071.77 589.19 1073.96 596.04 1071.00 600.00
C 1071.48 597.17 1069.25 595.19 1068.00 593.00
C 1046.19 592.84 1035.45 585.09 1015.00 582.00
C 1014.61 580.43 1015.94 577.78 1014.00 577.00 Z"/>
</g>
<g fill="#001F1E" fill-opacity="1.00" stroke="None">
<path d="
M 998.00 310.00 
C 1002.60 309.63 1007.38 310.00 1012.00 310.00
C 1013.00 310.00 1014.00 310.03 1015.00 310.00
C 1009.63 309.23 1003.46 308.95 998.00 310.00 Z"/>
</g>
<g fill="#1FB36F" fill-opacity="1.00" stroke="None">
<path d="
M 933.00 330.00 
C 938.43 328.30 944.82 325.59 951.00 325.00
C 955.04 323.13 959.73 322.28 964.00 321.00
C 969.75 319.28 975.07 318.25 981.00 317.00
C 989.91 315.12 998.49 314.00 1008.00 314.00
C 1010.14 313.74 1013.42 312.24 1016.00 312.00
C 1015.53 310.02 1012.40 312.11 1012.00 310.00
C 1007.38 310.00 1002.60 309.63 998.00 310.00
C 974.42 311.87 953.10 318.44 933.00 330.00 Z"/>
</g>
<g fill="#0F8659" fill-opacity="1.00" stroke="None">
<path d="
M 1008.00 314.00 
C 1015.69 314.00 1023.51 313.78 1031.00 315.00
C 1032.31 314.83 1033.68 315.13 1035.00 315.00
C 1034.76 313.12 1032.46 313.54 1032.00 312.00
C 1026.47 311.12 1020.69 309.85 1015.00 310.00
C 1014.00 310.03 1013.00 310.00 1012.00 310.00
C 1012.40 312.11 1015.53 310.02 1016.00 312.00
C 1013.42 312.24 1010.14 313.74 1008.00 314.00 Z"/>
</g>
<g fill="#025D42" fill-opacity="1.00" stroke="None">
<path d="
M 1031.00 315.00 
C 1034.46 315.56 1040.30 316.94 1044.01 317.99 C 1047.72 319.05 1054.81 318.03 1054.00 318.00
C 1046.70 315.20 1039.90 313.26 1032.00 312.00
C 1032.46 313.54 1034.76 313.12 1035.00 315.00
C 1033.68 315.13 1032.31 314.83 1031.00 315.00 Z"/>
</g>
<g fill="#013A32" fill-opacity="1.00" stroke="None">
<path d="
M 981.00 317.00 
C 990.28 317.19 1010.21 311.13 1014.00 322.00
C 1019.13 322.54 1022.51 326.15 1026.00 327.00
C 1026.45 326.85 1027.50 327.03 1028.00 327.00
C 1031.73 323.47 1038.07 325.08 1043.01 323.01 C 1047.94 320.93 1058.01 324.75 1059.00 325.00
C 1061.42 324.32 1066.90 326.67 1067.00 323.00
C 1062.57 321.63 1058.30 319.65 1054.00 318.00
C 1054.81 318.03 1047.72 319.05 1044.01 317.99 C 1040.30 316.94 1034.46 315.56 1031.00 315.00
C 1023.51 313.78 1015.69 314.00 1008.00 314.00
C 998.49 314.00 989.91 315.12 981.00 317.00 Z"/>
</g>
<g fill="#014A3A" fill-opacity="1.00" stroke="None">
<path d="
M 981.00 317.00 
C 975.07 318.25 969.75 319.28 964.00 321.00
C 964.50 321.09 965.85 322.83 967.00 322.00
C 963.48 326.67 968.66 331.83 973.10 334.90 C 977.53 337.97 979.61 346.90 987.00 345.00
C 989.55 346.76 984.07 347.52 987.00 349.00
C 989.33 347.08 993.18 344.59 996.00 343.00
C 1005.49 337.66 1015.86 330.50 1026.00 327.00
C 1022.51 326.15 1019.13 322.54 1014.00 322.00
C 1010.21 311.13 990.28 317.19 981.00 317.00 Z"/>
</g>
<g fill="#026245" fill-opacity="1.00" stroke="None">
<path d="
M 951.00 325.00 
C 949.17 325.85 947.02 327.13 945.00 328.00
C 942.69 331.04 949.70 333.28 950.75 336.25 C 951.79 339.23 952.82 344.46 954.00 348.00
C 962.78 346.54 964.21 358.47 971.07 359.93 C 977.94 361.38 981.81 352.68 987.00 349.00
C 984.07 347.52 989.55 346.76 987.00 345.00
C 979.61 346.90 977.53 337.97 973.10 334.90 C 968.66 331.83 963.48 326.67 967.00 322.00
C 965.85 322.83 964.50 321.09 964.00 321.00
C 959.73 322.28 955.04 323.13 951.00 325.00 Z"/>
</g>
<g fill="#015F40" fill-opacity="1.00" stroke="None">
<path d="
M 1028.00 327.00 
C 1030.40 326.85 1033.43 327.95 1035.00 328.00
C 1042.55 326.10 1051.16 325.30 1059.00 325.00
C 1058.01 324.75 1047.94 320.93 1043.01 323.01 C 1038.07 325.08 1031.73 323.47 1028.00 327.00 Z"/>
</g>
<g fill="#02905C" fill-opacity="1.00" stroke="None">
<path d="
M 933.00 330.00 
C 925.76 334.17 918.75 337.27 913.00 344.00
C 909.11 348.56 907.77 351.97 905.00 357.00
C 920.67 365.92 930.47 386.00 946.00 393.00
C 941.38 397.44 939.91 404.08 935.00 408.00
C 923.62 423.30 913.49 440.51 904.00 457.00
C 902.37 459.83 896.16 473.12 892.75 468.24 C 889.34 463.37 883.12 458.20 883.00 453.00
C 871.71 444.63 862.65 434.04 853.00 424.00
C 851.75 424.30 851.29 425.83 850.00 426.00
C 843.75 436.09 837.24 445.91 831.00 456.00
C 831.86 455.25 833.01 454.51 834.00 454.00
C 835.53 467.58 848.08 469.05 852.30 478.70 C 856.52 488.34 868.61 494.47 875.00 504.00
C 873.83 510.07 867.41 516.62 870.00 522.00
C 874.08 514.92 879.24 507.89 883.00 501.00
C 890.81 476.62 911.47 455.01 923.70 432.70 C 935.92 410.38 952.38 390.03 970.25 371.25 C 988.12 352.47 1010.18 334.24 1035.00 328.00
C 1033.43 327.95 1030.40 326.85 1028.00 327.00
C 1027.50 327.03 1026.45 326.85 1026.00 327.00
C 1015.86 330.50 1005.49 337.66 996.00 343.00
C 980.94 353.75 970.66 366.98 959.00 380.00
C 959.43 374.87 954.68 372.81 957.00 368.00
C 951.53 366.53 948.43 361.23 943.77 358.23 C 939.11 355.23 937.12 351.55 932.25 347.75 C 927.38 343.95 922.95 340.71 929.70 336.70 C 936.44 332.68 938.13 330.87 945.00 328.00
C 947.02 327.13 949.17 325.85 951.00 325.00
C 944.82 325.59 938.43 328.30 933.00 330.00 Z"/>
</g>
<g fill="#02774F" fill-opacity="1.00" stroke="None">
<path d="
M 996.00 343.00 
C 993.18 344.59 989.33 347.08 987.00 349.00
C 981.81 352.68 977.94 361.38 971.07 359.93 C 964.21 358.47 962.78 346.54 954.00 348.00
C 952.82 344.46 951.79 339.23 950.75 336.25 C 949.70 333.28 942.69 331.04 945.00 328.00
C 938.13 330.87 936.44 332.68 929.70 336.70 C 922.95 340.71 927.38 343.95 932.25 347.75 C 937.12 351.55 939.11 355.23 943.77 358.23 C 948.43 361.23 951.53 366.53 957.00 368.00
C 954.68 372.81 959.43 374.87 959.00 380.00
C 970.66 366.98 980.94 353.75 996.00 343.00 Z"/>
</g>
<g fill="#028C59" fill-opacity="1.00" stroke="None">
<path d="
M 680.00 468.00 
C 680.28 467.89 675.41 462.83 672.00 464.00 C 668.58 465.18 661.73 463.11 658.00 464.00
C 658.01 462.39 657.41 459.57 660.00 460.00
C 660.56 458.09 660.70 456.02 661.00 454.00
C 662.39 444.70 662.44 435.26 664.00 426.00
C 669.07 422.51 676.24 421.91 682.00 424.00
C 682.39 422.43 681.06 419.78 683.00 419.00
C 683.31 415.09 683.72 411.13 684.00 407.00
C 683.38 408.54 682.21 409.77 681.00 411.00
C 677.25 406.24 664.59 407.67 667.00 399.00 C 669.41 390.33 667.36 383.86 670.00 376.00
C 671.66 362.26 672.61 348.79 674.00 335.00
C 689.66 341.54 704.80 350.23 721.00 356.00
C 732.25 360.15 743.34 364.90 755.00 368.00
C 752.15 369.77 751.94 375.55 747.00 374.00
C 744.80 376.30 749.52 377.80 746.00 378.00
C 753.22 379.84 766.77 386.31 775.00 383.00 C 783.23 379.69 789.06 375.69 799.00 379.00 C 808.95 382.31 818.29 382.61 828.00 384.00
C 832.07 384.58 835.87 384.70 840.00 385.00
C 839.65 388.72 835.52 390.84 832.00 390.00
C 815.06 391.30 797.01 388.06 781.00 389.00
C 800.11 392.80 820.12 393.23 840.00 394.00
C 841.73 389.65 845.84 386.33 848.00 382.00
C 785.42 377.28 726.83 356.03 671.00 330.00
C 666.85 375.56 660.64 420.59 656.00 466.00
C 664.20 464.04 672.19 469.06 680.00 468.00 Z"/>
</g>
<g fill="#29CC81" fill-opacity="1.00" stroke="None">
<path d="
M 670.00 376.00 
C 670.00 378.33 670.00 380.67 670.00 383.00
C 675.92 381.57 683.24 386.18 687.00 382.00
C 687.84 375.68 687.70 369.22 689.00 363.00
C 696.20 365.64 703.77 367.29 711.00 370.00
C 716.96 371.59 722.98 372.46 729.00 374.00
C 734.45 372.22 714.35 362.28 725.00 358.00
C 723.59 357.84 721.66 357.35 721.00 356.00
C 704.80 350.23 689.66 341.54 674.00 335.00
C 672.61 348.79 671.66 362.26 670.00 376.00 Z"/>
</g>
<g fill="#0DAD6C" fill-opacity="1.00" stroke="None">
<path d="
M 907.00 348.00 
C 902.91 352.93 903.08 360.66 896.00 364.00
C 899.92 373.33 911.60 376.96 916.75 385.25 C 921.90 393.54 933.05 400.63 935.00 408.00
C 939.91 404.08 941.38 397.44 946.00 393.00
C 930.47 386.00 920.67 365.92 905.00 357.00
C 907.77 351.97 909.11 348.56 913.00 344.00
C 911.26 345.46 908.90 346.50 907.00 348.00 Z"/>
</g>
<g fill="#2CCD83" fill-opacity="1.00" stroke="None">
<path d="
M 822.00 464.00 
C 821.84 464.11 825.96 464.03 826.00 464.00
C 827.52 461.25 829.36 458.65 831.00 456.00
C 837.24 445.91 843.75 436.09 850.00 426.00
C 853.10 421.00 856.18 415.58 861.00 412.00
C 865.25 420.30 874.20 430.06 881.75 437.25 C 889.30 444.44 893.62 458.54 904.00 457.00
C 913.49 440.51 923.62 423.30 935.00 408.00
C 933.05 400.63 921.90 393.54 916.75 385.25 C 911.60 376.96 899.92 373.33 896.00 364.00
C 903.08 360.66 902.91 352.93 907.00 348.00
C 869.07 377.94 846.29 424.76 822.00 464.00 Z"/>
</g>
<g fill="#0CA969" fill-opacity="1.00" stroke="None">
<path d="
M 729.00 374.00 
C 734.24 375.34 740.41 376.57 746.00 378.00
C 749.52 377.80 744.80 376.30 747.00 374.00
C 751.94 375.55 752.15 369.77 755.00 368.00
C 743.34 364.90 732.25 360.15 721.00 356.00
C 721.66 357.35 723.59 357.84 725.00 358.00
C 714.35 362.28 734.45 372.22 729.00 374.00 Z"/>
</g>
<g fill="#12283A" fill-opacity="1.00" stroke="None">
<path d="
M 1080.00 364.00 
C 1080.14 363.81 1079.93 367.12 1079.00 368.00
C 1084.27 366.68 1088.54 362.53 1094.00 362.00
C 1093.91 380.82 1091.31 399.01 1088.00 417.00
C 1075.72 413.52 1064.31 412.78 1052.00 414.00
C 1048.11 410.67 1037.26 407.80 1032.00 411.00
C 1032.04 408.33 1031.95 405.67 1032.00 403.00
C 1029.97 418.09 1027.75 433.99 1028.00 450.00
C 1037.57 449.95 1047.26 457.81 1057.08 458.07 C 1066.90 458.32 1075.53 461.37 1084.00 458.00
C 1082.57 490.72 1078.49 522.78 1075.00 555.00
C 1061.50 549.36 1045.32 550.09 1036.00 541.00
C 1030.70 543.51 1023.22 543.14 1023.00 539.00
C 1019.45 539.04 1019.77 541.93 1018.00 538.00
C 1016.91 551.05 1015.43 564.02 1014.00 577.00
C 1015.94 577.78 1014.61 580.43 1015.00 582.00
C 1035.45 585.09 1046.19 592.84 1068.00 593.00
C 1069.25 595.19 1071.48 597.17 1071.00 600.00
C 1073.96 596.04 1071.77 589.19 1074.00 585.00
C 1074.47 587.52 1072.97 591.23 1075.00 593.00
C 1081.80 513.69 1090.65 434.90 1099.00 356.00
C 1092.21 357.17 1086.03 361.43 1080.00 364.00 Z"/>
</g>
<g fill="#015843" fill-opacity="1.00" stroke="None">
<path d="
M 687.00 382.00 
C 685.91 390.19 684.57 398.70 684.00 407.00
C 683.72 411.13 683.31 415.09 683.00 419.00
C 682.71 422.64 683.22 426.35 683.00 430.00
C 684.69 425.79 685.26 428.50 685.00 432.00
C 685.20 429.96 686.00 426.77 686.00 424.00
C 686.00 415.17 687.47 406.91 689.00 399.00
C 689.53 390.21 691.28 386.29 691.00 377.00 C 690.72 367.71 695.31 369.57 703.00 372.00
C 701.11 372.06 709.44 369.99 711.00 370.00
C 703.77 367.29 696.20 365.64 689.00 363.00
C 687.70 369.22 687.84 375.68 687.00 382.00 Z"/>
</g>
<g fill="#384F62" fill-opacity="1.00" stroke="None">
<path d="
M 1079.00 368.00 
C 1079.93 367.12 1080.14 363.81 1080.00 364.00
C 1070.17 366.75 1061.91 371.20 1052.01 374.01 C 1042.11 376.81 1031.52 379.21 1021.22 381.22 C 1010.92 383.23 998.85 386.35 988.02 386.02 C 977.19 385.69 973.16 396.57 968.00 404.00
C 976.10 398.53 980.05 389.39 990.93 389.93 C 1001.81 390.46 1012.66 386.09 1022.99 384.99 C 1033.32 383.89 1042.74 379.98 1052.32 377.32 C 1061.90 374.67 1069.84 371.47 1079.00 368.00 Z"/>
</g>
<g fill="#016F4B" fill-opacity="1.00" stroke="None">
<path d="
M 703.00 372.00 
C 728.30 380.00 754.55 385.31 781.00 389.00
C 797.01 388.06 815.06 391.30 832.00 390.00
C 829.86 389.96 825.88 387.96 823.00 389.00
C 828.19 387.38 823.03 385.95 821.00 384.00
C 823.33 384.00 825.67 384.00 828.00 384.00
C 818.29 382.61 808.95 382.31 799.00 379.00 C 789.06 375.69 783.23 379.69 775.00 383.00 C 766.77 386.31 753.22 379.84 746.00 378.00
C 740.41 376.57 734.24 375.34 729.00 374.00
C 722.98 372.46 716.96 371.59 711.00 370.00
C 709.44 369.99 701.11 372.06 703.00 372.00 Z"/>
</g>
<g fill="#12B371" fill-opacity="1.00" stroke="None">
<path d="
M 684.00 407.00 
C 684.57 398.70 685.91 390.19 687.00 382.00
C 683.24 386.18 675.92 381.57 670.00 383.00
C 670.00 380.67 670.00 378.33 670.00 376.00
C 667.36 383.86 669.41 390.33 667.00 399.00 C 664.59 407.67 677.25 406.24 681.00 411.00
C 682.21 409.77 683.38 408.54 684.00 407.00 Z"/>
</g>
<g fill="#015840" fill-opacity="1.00" stroke="None">
<path d="
M 832.00 390.00 
C 835.52 390.84 839.65 388.72 840.00 385.00
C 835.87 384.70 832.07 384.58 828.00 384.00
C 825.67 384.00 823.33 384.00 821.00 384.00
C 823.03 385.95 828.19 387.38 823.00 389.00
C 825.88 387.96 829.86 389.96 832.00 390.00 Z"/>
</g>
<g fill="#2C4356" fill-opacity="1.00" stroke="None">
<path d="
M 1023.00 452.00 
C 1023.78 457.37 1025.11 454.38 1026.00 451.00
C 1024.88 467.11 1024.18 485.33 1022.00 501.00 C 1019.83 516.67 1019.93 534.21 1014.00 546.00
C 1010.36 567.53 1009.22 590.73 1007.00 613.00
C 998.08 610.84 989.06 609.59 980.00 608.00
C 977.79 608.21 974.83 609.81 972.00 610.00
C 984.25 612.15 997.21 615.52 1010.00 617.00
C 1011.18 603.63 1011.91 590.12 1014.00 577.00
C 1015.43 564.02 1016.91 551.05 1018.00 538.00
C 1019.77 541.93 1019.45 539.04 1023.00 539.00
C 1023.22 543.14 1030.70 543.51 1036.00 541.00
C 1045.32 550.09 1061.50 549.36 1075.00 555.00
C 1078.49 522.78 1082.57 490.72 1084.00 458.00
C 1075.53 461.37 1066.90 458.32 1057.08 458.07 C 1047.26 457.81 1037.57 449.95 1028.00 450.00
C 1027.75 433.99 1029.97 418.09 1032.00 403.00
C 1031.47 401.07 1033.05 399.76 1033.00 398.00
C 1024.47 402.48 1027.68 414.16 1026.00 423.00 C 1024.32 431.84 1024.22 442.87 1023.00 452.00 Z"/>
</g>
<g fill="#022F2F" fill-opacity="1.00" stroke="None">
<path d="
M 686.00 424.00 
C 687.10 416.28 688.50 407.44 689.00 399.00
C 687.47 406.91 686.00 415.17 686.00 424.00 Z"/>
</g>
<g fill="#11B270" fill-opacity="1.00" stroke="None">
<path d="
M 850.00 426.00 
C 851.29 425.83 851.75 424.30 853.00 424.00
C 862.65 434.04 871.71 444.63 883.00 453.00
C 883.12 458.20 889.34 463.37 892.75 468.24 C 896.16 473.12 902.37 459.83 904.00 457.00
C 893.62 458.54 889.30 444.44 881.75 437.25 C 874.20 430.06 865.25 420.30 861.00 412.00
C 856.18 415.58 853.10 421.00 850.00 426.00 Z"/>
</g>
<g fill="#027851" fill-opacity="1.00" stroke="None">
<path d="
M 661.00 454.00 
C 667.15 450.58 672.49 447.87 680.00 448.00
C 680.66 453.58 678.34 458.40 679.00 464.00
C 673.23 461.57 663.46 465.34 660.00 460.00
C 657.41 459.57 658.01 462.39 658.00 464.00
C 661.73 463.11 668.58 465.18 672.00 464.00 C 675.41 462.83 680.28 467.89 680.00 468.00
C 684.99 467.33 681.89 456.90 683.22 451.22 C 684.55 445.55 685.39 438.29 685.00 432.00
C 685.26 428.50 684.69 425.79 683.00 430.00
C 683.22 426.35 682.71 422.64 683.00 419.00
C 681.06 419.78 682.39 422.43 682.00 424.00
C 676.24 421.91 669.07 422.51 664.00 426.00
C 662.44 435.26 662.39 444.70 661.00 454.00 Z"/>
</g>
<g fill="#016448" fill-opacity="1.00" stroke="None">
<path d="
M 661.00 454.00 
C 660.70 456.02 660.56 458.09 660.00 460.00
C 663.46 465.34 673.23 461.57 679.00 464.00
C 678.34 458.40 680.66 453.58 680.00 448.00
C 672.49 447.87 667.15 450.58 661.00 454.00 Z"/>
</g>
<g fill="#435D70" fill-opacity="1.00" stroke="None">
<path d="
M 1023.00 452.00 
C 1018.84 483.19 1017.05 514.46 1014.00 546.00
C 1019.93 534.21 1019.83 516.67 1022.00 501.00 C 1024.18 485.33 1024.88 467.11 1026.00 451.00
C 1025.11 454.38 1023.78 457.37 1023.00 452.00 Z"/>
</g>
<g fill="#027550" fill-opacity="1.00" stroke="None">
<path d="
M 831.00 456.00 
C 829.36 458.65 827.52 461.25 826.00 464.00
C 825.33 465.21 824.82 466.71 824.00 468.00
C 823.35 473.11 831.50 478.61 834.30 483.70 C 837.11 488.79 841.72 496.02 846.92 500.08 C 852.11 504.15 856.99 510.75 861.25 514.75 C 865.51 518.75 868.04 517.31 865.23 522.23 C 862.42 527.15 863.81 527.86 860.23 531.23 C 856.65 534.60 859.96 540.70 860.00 540.00
C 863.44 534.02 866.57 527.97 870.00 522.00
C 867.41 516.62 873.83 510.07 875.00 504.00
C 868.61 494.47 856.52 488.34 852.30 478.70 C 848.08 469.05 835.53 467.58 834.00 454.00
C 833.01 454.51 831.86 455.25 831.00 456.00 Z"/>
</g>
<g fill="#0A9862" fill-opacity="1.00" stroke="None">
<path d="
M 822.00 464.00 
C 815.23 474.94 808.82 487.10 802.00 498.00
C 804.48 495.44 806.90 495.34 809.00 493.00
C 809.76 491.68 810.28 490.33 811.00 489.00
C 814.97 481.71 819.56 475.00 824.00 468.00
C 824.82 466.71 825.33 465.21 826.00 464.00
C 825.96 464.03 821.84 464.11 822.00 464.00 Z"/>
</g>
<g fill="#026147" fill-opacity="1.00" stroke="None">
<path d="
M 811.00 489.00 
C 813.54 487.23 812.84 490.14 813.00 492.00
C 821.26 490.74 817.08 503.83 824.25 505.75 C 831.41 507.68 832.78 515.62 838.25 519.75 C 843.71 523.88 846.34 529.83 854.08 530.06 C 861.83 530.30 855.03 540.62 851.75 545.75 C 848.46 550.87 845.55 558.72 841.00 563.00
C 837.67 567.95 835.05 574.67 831.70 579.70 C 828.34 584.72 832.02 586.60 832.00 587.00
C 839.37 574.19 847.77 561.70 855.00 549.00
C 856.62 546.15 858.29 542.97 860.00 540.00
C 859.96 540.70 856.65 534.60 860.23 531.23 C 863.81 527.86 862.42 527.15 865.23 522.23 C 868.04 517.31 865.51 518.75 861.25 514.75 C 856.99 510.75 852.11 504.15 846.92 500.08 C 841.72 496.02 837.11 488.79 834.30 483.70 C 831.50 478.61 823.35 473.11 824.00 468.00
C 819.56 475.00 814.97 481.71 811.00 489.00 Z"/>
</g>
<g fill="#052F22" fill-opacity="1.00" stroke="None">
<path d="
M 644.00 485.00 
C 649.73 484.46 656.26 484.61 662.00 485.00
C 656.40 484.00 649.68 483.80 644.00 485.00 Z"/>
</g>
<g fill="#2ACD81" fill-opacity="1.00" stroke="None">
<path d="
M 616.00 492.00 
C 617.00 492.13 619.40 494.90 620.00 495.00
C 636.14 489.48 654.00 487.42 671.00 491.00
C 677.25 492.32 682.61 493.93 688.00 497.00
C 693.78 500.29 698.12 503.12 703.00 508.00
C 704.67 509.67 705.72 511.44 707.00 513.00
C 710.54 517.31 713.83 521.37 717.00 526.00
C 720.01 530.38 723.80 535.17 724.00 541.00
C 714.71 546.66 704.43 553.00 695.30 560.30 C 686.18 567.60 675.49 574.81 666.00 580.00
C 668.54 585.49 667.19 586.65 667.00 590.00
C 677.16 611.98 685.29 636.75 709.00 649.00
C 710.27 648.97 711.73 648.46 712.00 647.00
C 710.67 646.01 708.43 645.95 708.00 644.00
C 707.57 643.83 707.00 644.00 707.00 644.00
C 706.04 643.65 704.78 642.59 704.00 642.00
C 697.83 637.33 692.21 630.60 689.00 624.00
C 696.79 617.84 705.34 614.07 713.70 607.70 C 722.05 601.32 728.74 598.61 736.75 591.75 C 744.75 584.88 755.02 583.05 760.00 596.00
C 760.71 596.96 761.33 598.07 762.00 599.00
C 762.69 599.96 763.32 601.10 764.00 602.00
C 768.27 606.65 771.08 607.17 776.00 609.00
C 772.51 605.74 769.14 601.53 766.00 598.00
C 729.13 562.55 724.40 489.25 662.00 485.00
C 656.26 484.61 649.73 484.46 644.00 485.00
C 634.33 485.91 625.07 488.90 616.00 492.00 Z"/>
</g>
<g fill="#014B3E" fill-opacity="1.00" stroke="None">
<path d="
M 811.00 489.00 
C 810.28 490.33 809.76 491.68 809.00 493.00
C 803.02 503.40 795.95 513.74 788.00 520.00
C 780.47 530.86 774.06 542.59 767.00 554.00
C 765.37 556.63 762.19 560.04 764.00 563.00
C 773.43 552.56 780.17 539.43 788.00 528.00
C 789.62 525.15 791.15 521.89 793.00 519.00
C 807.76 526.73 809.77 542.20 825.00 548.00
C 823.25 555.12 835.47 558.69 836.00 564.00
C 837.54 563.65 839.90 560.81 841.00 563.00
C 845.55 558.72 848.46 550.87 851.75 545.75 C 855.03 540.62 861.83 530.30 854.08 530.06 C 846.34 529.83 843.71 523.88 838.25 519.75 C 832.78 515.62 831.41 507.68 824.25 505.75 C 817.08 503.83 821.26 490.74 813.00 492.00
C 812.84 490.14 813.54 487.23 811.00 489.00 Z"/>
</g>
<g fill="#014038" fill-opacity="1.00" stroke="None">
<path d="
M 620.00 495.00 
C 611.55 497.89 604.05 502.06 596.00 506.00
C 595.23 506.81 594.53 508.05 594.00 509.00
C 605.45 507.33 614.73 513.85 624.00 519.00
C 623.82 514.73 633.68 516.28 635.70 512.70 C 637.71 509.12 643.88 508.20 647.08 505.08 C 650.29 501.96 654.69 500.11 658.08 497.08 C 661.47 494.05 666.79 491.07 671.00 491.00
C 654.00 487.42 636.14 489.48 620.00 495.00 Z"/>
</g>
<g fill="#015340" fill-opacity="1.00" stroke="None">
<path d="
M 624.00 519.00 
C 624.81 519.76 625.30 521.23 626.00 522.00
C 629.35 524.65 632.28 527.82 635.00 531.00
C 641.40 535.65 645.65 525.43 651.75 522.75 C 657.84 520.06 664.46 514.04 669.25 509.25 C 674.05 504.47 685.30 505.55 688.00 497.00
C 682.61 493.93 677.25 492.32 671.00 491.00
C 666.79 491.07 661.47 494.05 658.08 497.08 C 654.69 500.11 650.29 501.96 647.08 505.08 C 643.88 508.20 637.71 509.12 635.70 512.70 C 633.68 516.28 623.82 514.73 624.00 519.00 Z"/>
</g>
<g fill="#06945D" fill-opacity="1.00" stroke="None">
<path d="
M 594.00 503.00 
C 592.35 504.38 590.41 506.59 589.00 508.00
C 589.98 507.55 593.90 507.03 596.00 506.00
C 604.05 502.06 611.55 497.89 620.00 495.00
C 619.40 494.90 617.00 492.13 616.00 492.00
C 608.13 494.69 601.20 498.72 594.00 503.00 Z"/>
</g>
<g fill="#047651" fill-opacity="1.00" stroke="None">
<path d="
M 802.00 498.00 
C 795.95 504.23 792.98 512.81 788.00 520.00
C 795.95 513.74 803.02 503.40 809.00 493.00
C 806.90 495.34 804.48 495.44 802.00 498.00 Z"/>
</g>
<g fill="#016849" fill-opacity="1.00" stroke="None">
<path d="
M 635.00 531.00 
C 636.66 532.94 638.38 535.11 640.00 537.00
C 640.98 537.91 642.75 538.46 643.00 540.00
C 653.29 538.06 665.36 532.38 672.70 524.70 C 680.03 517.02 693.92 515.65 695.00 505.00
C 698.33 503.58 701.03 509.30 703.00 508.00
C 698.12 503.12 693.78 500.29 688.00 497.00
C 685.30 505.55 674.05 504.47 669.25 509.25 C 664.46 514.04 657.84 520.06 651.75 522.75 C 645.65 525.43 641.40 535.65 635.00 531.00 Z"/>
</g>
<g fill="#001114" fill-opacity="1.00" stroke="None">
<path d="
M 870.00 522.00 
C 866.57 527.97 863.44 534.02 860.00 540.00
C 858.29 542.97 856.62 546.15 855.00 549.00
C 865.39 535.71 877.81 517.21 883.00 501.00
C 879.24 507.89 874.08 514.92 870.00 522.00 Z"/>
</g>
<g fill="#013830" fill-opacity="1.00" stroke="None">
<path d="
M 597.00 512.00 
C 593.94 511.41 589.74 510.37 586.00 511.00
C 586.67 509.80 587.64 508.42 589.00 508.00
C 590.41 506.59 592.35 504.38 594.00 503.00
C 590.39 504.77 586.18 508.05 585.00 512.00
C 588.98 512.24 593.03 511.68 597.00 512.00 Z"/>
</g>
<g fill="#017A51" fill-opacity="1.00" stroke="None">
<path d="
M 640.00 537.00 
C 644.85 542.67 646.96 550.93 654.25 548.25 C 661.54 545.56 663.93 537.23 671.23 535.23 C 678.53 533.23 683.74 526.02 690.01 524.01 C 696.28 522.00 701.77 511.12 707.00 513.00
C 705.72 511.44 704.67 509.67 703.00 508.00
C 701.03 509.30 698.33 503.58 695.00 505.00
C 693.92 515.65 680.03 517.02 672.70 524.70 C 665.36 532.38 653.29 538.06 643.00 540.00
C 642.75 538.46 640.98 537.91 640.00 537.00 Z"/>
</g>
<g fill="#026B4A" fill-opacity="1.00" stroke="None">
<path d="
M 589.00 508.00 
C 587.64 508.42 586.67 509.80 586.00 511.00
C 589.74 510.37 593.94 511.41 597.00 512.00
C 603.55 512.52 610.33 515.74 616.00 519.00
C 619.24 519.75 622.28 519.06 626.00 522.00
C 625.30 521.23 624.81 519.76 624.00 519.00
C 614.73 513.85 605.45 507.33 594.00 509.00
C 594.53 508.05 595.23 506.81 596.00 506.00
C 593.90 507.03 589.98 507.55 589.00 508.00 Z"/>
</g>
<g fill="#01935D" fill-opacity="1.00" stroke="None">
<path d="
M 640.00 537.00 
C 638.38 535.11 636.66 532.94 635.00 531.00
C 632.28 527.82 629.35 524.65 626.00 522.00
C 622.28 519.06 619.24 519.75 616.00 519.00
C 640.35 533.01 656.20 566.64 667.00 590.00
C 667.19 586.65 668.54 585.49 666.00 580.00
C 664.36 576.44 661.27 572.56 662.00 568.00
C 670.43 562.24 683.48 556.33 691.25 548.25 C 699.02 540.16 714.13 536.02 717.00 526.00
C 713.83 521.37 710.54 517.31 707.00 513.00
C 701.77 511.12 696.28 522.00 690.01 524.01 C 683.74 526.02 678.53 533.23 671.23 535.23 C 663.93 537.23 661.54 545.56 654.25 548.25 C 646.96 550.93 644.85 542.67 640.00 537.00 Z"/>
</g>
<g fill="#013736" fill-opacity="1.00" stroke="None">
<path d="
M 788.00 528.00 
C 786.42 532.66 790.91 543.00 796.00 542.00
C 794.55 546.78 797.08 546.41 800.00 546.00
C 798.47 552.85 809.32 553.29 807.00 559.00
C 816.89 563.56 822.56 573.46 831.00 579.00
C 824.86 588.42 820.18 599.16 812.00 607.00
C 812.00 607.00 812.25 607.78 812.00 608.00
C 815.10 605.69 820.18 602.28 822.00 601.00
C 825.77 596.63 829.04 592.14 832.00 587.00
C 832.02 586.60 828.34 584.72 831.70 579.70 C 835.05 574.67 837.67 567.95 841.00 563.00
C 839.90 560.81 837.54 563.65 836.00 564.00
C 835.47 558.69 823.25 555.12 825.00 548.00
C 809.77 542.20 807.76 526.73 793.00 519.00
C 791.15 521.89 789.62 525.15 788.00 528.00 Z"/>
</g>
<g fill="#0BB26E" fill-opacity="1.00" stroke="None">
<path d="
M 666.00 580.00 
C 675.49 574.81 686.18 567.60 695.30 560.30 C 704.43 553.00 714.71 546.66 724.00 541.00
C 723.80 535.17 720.01 530.38 717.00 526.00
C 714.13 536.02 699.02 540.16 691.25 548.25 C 683.48 556.33 670.43 562.24 662.00 568.00
C 661.27 572.56 664.36 576.44 666.00 580.00 Z"/>
</g>
<g fill="#00242D" fill-opacity="1.00" stroke="None">
<path d="
M 767.00 554.00 
C 761.30 561.44 754.13 569.73 752.00 579.00
C 758.82 574.89 762.49 566.09 768.00 560.00
C 772.43 562.94 777.30 564.91 782.00 567.00
C 779.81 572.33 790.22 571.67 786.00 577.00
C 798.30 580.39 800.09 593.77 808.00 600.00
C 805.99 602.62 808.95 605.22 809.00 608.00
C 809.86 607.29 811.09 607.37 812.00 607.00
C 820.18 599.16 824.86 588.42 831.00 579.00
C 822.56 573.46 816.89 563.56 807.00 559.00
C 809.32 553.29 798.47 552.85 800.00 546.00
C 797.08 546.41 794.55 546.78 796.00 542.00
C 790.91 543.00 786.42 532.66 788.00 528.00
C 780.17 539.43 773.43 552.56 764.00 563.00
C 762.19 560.04 765.37 556.63 767.00 554.00 Z"/>
</g>
<g fill="#09A567" fill-opacity="1.00" stroke="None">
<path d="
M 704.00 642.00 
C 702.20 640.35 700.56 637.82 699.00 636.00
C 704.88 634.99 704.85 625.52 711.08 623.08 C 717.31 620.63 718.35 614.42 725.08 612.08 C 731.82 609.74 734.96 605.31 739.89 601.89 C 744.83 598.47 749.13 593.07 755.00 591.00
C 756.26 592.93 758.00 594.91 760.00 596.00
C 755.02 583.05 744.75 584.88 736.75 591.75 C 728.74 598.61 722.05 601.32 713.70 607.70 C 705.34 614.07 696.79 617.84 689.00 624.00
C 692.21 630.60 697.83 637.33 704.00 642.00 Z"/>
</g>
<g fill="#018E5A" fill-opacity="1.00" stroke="None">
<path d="
M 704.00 642.00 
C 704.78 642.59 706.04 643.65 707.00 644.00
C 705.89 642.94 704.87 641.21 704.00 640.00
C 715.92 638.32 724.09 627.13 734.23 621.23 C 744.37 615.33 753.72 607.28 758.00 596.00
C 759.66 596.54 760.33 598.56 762.00 599.00
C 761.33 598.07 760.71 596.96 760.00 596.00
C 758.00 594.91 756.26 592.93 755.00 591.00
C 749.13 593.07 744.83 598.47 739.89 601.89 C 734.96 605.31 731.82 609.74 725.08 612.08 C 718.35 614.42 717.31 620.63 711.08 623.08 C 704.85 625.52 704.88 634.99 699.00 636.00
C 700.56 637.82 702.20 640.35 704.00 642.00 Z"/>
</g>
<g fill="#017A50" fill-opacity="1.00" stroke="None">
<path d="
M 707.00 644.00 
C 707.00 644.00 707.57 643.83 708.00 644.00
C 713.58 646.19 718.11 648.65 724.00 650.00
C 725.83 648.38 723.91 646.86 724.00 645.00
C 734.53 640.97 738.11 633.18 746.23 627.23 C 754.35 621.28 760.75 611.61 770.00 609.00
C 767.89 607.17 765.66 604.19 764.00 602.00
C 763.32 601.10 762.69 599.96 762.00 599.00
C 760.33 598.56 759.66 596.54 758.00 596.00
C 753.72 607.28 744.37 615.33 734.23 621.23 C 724.09 627.13 715.92 638.32 704.00 640.00
C 704.87 641.21 705.89 642.94 707.00 644.00 Z"/>
</g>
<g fill="#002821" fill-opacity="1.00" stroke="None">
<path d="
M 776.00 609.00 
C 776.54 609.50 777.38 609.68 778.00 610.00
C 773.97 606.85 769.80 601.66 766.00 598.00
C 769.14 601.53 772.51 605.74 776.00 609.00 Z"/>
</g>
<g fill="#0D9A60" fill-opacity="1.00" stroke="None">
<path d="
M 812.00 608.00 
C 801.55 617.13 789.55 615.91 778.00 610.00
C 777.38 609.68 776.54 609.50 776.00 609.00
C 771.08 607.17 768.27 606.65 764.00 602.00
C 765.66 604.19 767.89 607.17 770.00 609.00
C 773.58 612.12 779.79 616.70 784.00 618.00
C 795.00 621.38 809.45 616.67 817.00 608.00
C 818.62 605.64 820.08 603.22 822.00 601.00
C 820.18 602.28 815.10 605.69 812.00 608.00 Z"/>
</g>
<g fill="#425A6E" fill-opacity="1.00" stroke="None">
<path d="
M 888.00 604.00 
C 886.95 604.26 884.45 605.58 884.00 607.00
C 894.33 607.00 904.67 607.00 915.00 607.00
C 934.07 607.00 953.62 611.25 972.00 610.00
C 974.83 609.81 977.79 608.21 980.00 608.00
C 949.75 602.68 919.23 604.00 888.00 604.00 Z"/>
</g>
<g fill="#213A4E" fill-opacity="1.00" stroke="None">
<path d="
M 915.00 607.00 
C 904.67 607.00 894.33 607.00 884.00 607.00
C 884.45 605.58 886.95 604.26 888.00 604.00
C 873.63 607.51 850.84 599.62 845.00 617.00
C 849.69 613.15 868.01 617.92 861.00 610.00
C 878.87 608.61 897.54 608.69 915.00 607.00 Z"/>
</g>
<g fill="#016045" fill-opacity="1.00" stroke="None">
<path d="
M 724.00 650.00 
C 726.09 650.48 727.68 650.88 730.00 651.00
C 738.62 651.45 746.90 649.22 755.00 651.00
C 754.12 653.07 750.96 652.21 750.00 654.00
C 766.47 650.71 780.66 642.21 794.00 632.00
C 797.52 628.75 800.74 624.43 804.00 621.00
C 796.51 622.55 790.93 630.90 782.92 634.92 C 774.92 638.95 766.88 647.13 757.00 647.00
C 757.31 639.43 763.18 637.33 769.07 634.07 C 774.96 630.81 776.11 621.27 784.00 620.00
C 783.02 619.05 781.19 617.97 784.00 618.00
C 779.79 616.70 773.58 612.12 770.00 609.00
C 760.75 611.61 754.35 621.28 746.23 627.23 C 738.11 633.18 734.53 640.97 724.00 645.00
C 723.91 646.86 725.83 648.38 724.00 650.00 Z"/>
</g>
<g fill="#014B3B" fill-opacity="1.00" stroke="None">
<path d="
M 784.00 618.00 
C 781.19 617.97 783.02 619.05 784.00 620.00
C 776.11 621.27 774.96 630.81 769.07 634.07 C 763.18 637.33 757.31 639.43 757.00 647.00
C 766.88 647.13 774.92 638.95 782.92 634.92 C 790.93 630.90 796.51 622.55 804.00 621.00
C 800.74 624.43 797.52 628.75 794.00 632.00
C 795.26 631.04 796.74 630.04 798.00 629.00
C 801.62 625.52 805.49 621.51 809.00 618.00
C 811.76 614.77 814.59 611.52 817.00 608.00
C 809.45 616.67 795.00 621.38 784.00 618.00 Z"/>
</g>
<g fill="#001A1C" fill-opacity="1.00" stroke="None">
<path d="
M 798.00 629.00 
C 801.95 625.76 805.64 621.93 809.00 618.00
C 805.49 621.51 801.62 625.52 798.00 629.00 Z"/>
</g>
<g fill="#09A265" fill-opacity="1.00" stroke="None">
<path d="
M 709.00 649.00 
C 714.23 651.70 720.80 654.45 727.00 655.00
C 730.28 655.29 733.71 655.00 737.00 655.00
C 735.01 654.54 732.01 651.55 730.00 651.00
C 727.68 650.88 726.09 650.48 724.00 650.00
C 718.11 648.65 713.58 646.19 708.00 644.00
C 708.43 645.95 710.67 646.01 712.00 647.00
C 711.73 648.46 710.27 648.97 709.00 649.00 Z"/>
</g>
<g fill="#038355" fill-opacity="1.00" stroke="None">
<path d="
M 730.00 651.00 
C 732.01 651.55 735.01 654.54 737.00 655.00
C 738.33 655.00 739.67 655.00 741.00 655.00
C 744.23 654.99 746.99 654.60 750.00 654.00
C 750.96 652.21 754.12 653.07 755.00 651.00
C 746.90 649.22 738.62 651.45 730.00 651.00 Z"/>
</g>
<g fill="#001C1A" fill-opacity="1.00" stroke="None">
<path d="
M 741.00 655.00 
C 739.67 655.00 738.33 655.00 737.00 655.00
C 733.71 655.00 730.28 655.29 727.00 655.00
C 731.56 655.93 736.42 655.65 741.00 655.00 Z"/>
</g>
</svg>